<svg xmlns="http://www.w3.org/2000/svg" xmlns:xlink="http://www.w3.org/1999/xlink" viewBox="0,0,256,256" width="128px" height="128px" fill-rule="nonzero"><g fill="#ffffff" fill-rule="nonzero" stroke="none" stroke-width="1" stroke-linecap="butt" stroke-linejoin="miter" stroke-miterlimit="10" stroke-dasharray="" stroke-dashoffset="0" font-family="none" font-weight="none" font-size="none" text-anchor="none" style="mix-blend-mode: normal"><g transform="scale(2,2)"><path d="M43.80078,24.80078c-3.6,0 -7.00156,1.79922 -9.10156,4.69922l-21.69922,30.80078c-0.4,0.5 -0.5,1.09922 -0.5,1.69922v30.09961c0,6.1 4.99961,11.09961 11.09961,11.09961h40.40039h0.5h0.30078h39.59961c6.1,0 11.09961,-4.9 11.09961,-11v-30.19922c0,-0.2 0.00039,-0.4 -0.09961,-0.5v-0.19922c0,-0.1 -0.09961,-0.20078 -0.09961,-0.30078c0,-0.1 -0.00156,-0.09922 -0.10156,-0.19922c-0.1,-0.1 -0.09922,-0.20078 -0.19922,-0.30078c0,0 0.00039,-0.09961 -0.09961,-0.09961l-21.59961,-30.90039c-2.1,-2.9 -5.50156,-4.69922 -9.10156,-4.69922c-3.6,0 -6.99961,1.79922 -9.09961,4.69922l-1.69922,2.40039h-9.80078c-1.7,0 -3,1.3 -3,3c0,1.7 1.3,3 3,3h16.40039c1.2,0 2.19922,0.9 2.19922,2c0,1.1 -0.99922,2 -2.19922,2h-12c-1,0 -1.9,0.49883 -2.5,1.29883l-1.5,2.10156l-11.09961,-15.80078c-2.1,-2.9 -5.49961,-4.69922 -9.09961,-4.69922zM43.80078,30.80078c1.7,0 3.19922,0.79922 4.19922,2.19922l21.09961,30v29.19922c0,2.8 -2.29961,5 -5.09961,5h-40.40039c-2.8,0 -5.09961,-2.3 -5.09961,-5v-29.19922l21.09961,-30c1,-1.4 2.50117,-2.19922 4.20117,-2.19922zM84.19922,30.90039c1.7,0 3.20117,0.79922 4.20117,2.19922l18.29883,26h-23.09961l-6,-8.5l1.90039,-2.69922h0.5c4.5,0 8.19922,-3.6 8.19922,-8c0,-4.1 -3.09922,-7.40039 -7.19922,-7.90039c0.9,-0.7 1.99922,-1.09961 3.19922,-1.09961zM43.80078,34.90039c-2.76142,0 -5,2.23858 -5,5c0,2.76142 2.23858,5 5,5c2.76142,0 5,-2.23858 5,-5c0,-2.76142 -2.23858,-5 -5,-5zM75.09961,65h34.40039v27.09961c0,2.8 -2.29961,5 -5.09961,5h-30.5c0.7,-1.4 1.19922,-3.2 1.19922,-5z"></path></g></g></svg>